<svg xmlns="http://www.w3.org/2000/svg" xmlns:xlink="http://www.w3.org/1999/xlink" version="1.1" x="0px" y="0px" viewBox="-2.5 -2.5 110 137.5" enable-background="new -2.5 -2.5 110 110" xml:space="preserve"><path fill-rule="evenodd" clip-rule="evenodd" d="M96,42.7l-8.4,14.6H75.3l8.6-15H65.1l-8.6,15H44.3l8.6-15H34l-8.6,15H13.2l8.6-15  h-0.1l0.5-0.1L10.8,30.7l11.8-3.2L34.1,39l18.2-4.9L40.9,22.6l11.7-3.1L64.1,31L82.4,26L70.9,14.6l11.7-3.1l10.7,10.7  c1.6-1.7,2.2-4.2,1.5-6.8L93,8.5c-0.1-0.5-0.3-1-0.5-1.4c-0.9-3.3-4.4-5.2-7.8-4.3L9.8,22.8c-3.4,0.9-5.5,4.4-4.6,7.7l0.4,1.6l0.1,0  l1.8,6.7c0.1,0.2,0.1,0.5,0.2,0.7l1.6,6.1l0.2-0.1v11.7v1v37c0,4,3.9,7.2,8.7,7.2h72.9c4.8,0,8.7-3.2,8.7-7.2v-37v-1v-9.6  C100,45.4,98.3,43.4,96,42.7z"/></svg>
